<!-- <svg width="500" height="500" preserveAspectRatio="xMidYMid meet" viewBox="0 0 256 257" fill="none" xmlns="http://www.w3.org/2000/svg">
<path d="M23.8875 45.3873C23.5368 45.3878 23.2007 45.5473 22.9527 45.8308C22.7047 46.1143 22.5653 46.4987 22.5649 46.8997V50.4379C22.5653 50.8389 22.7047 51.2233 22.9527 51.5068C23.2007 51.7903 23.5368 51.9498 23.8875 51.9503H25.5651C25.9158 51.9498 26.252 51.7903 26.4999 51.5068C26.7479 51.2233 26.8873 50.8389 26.8877 50.4379V46.8997C26.8873 46.4987 26.7479 46.1143 26.4999 45.8308C26.252 45.5473 25.9158 45.3878 25.5651 45.3873H23.8875Z" fill="#E1E1E1"/>
<path d="M54.8987 52.068H53.2211C52.8431 52.0675 52.4808 51.8956 52.2135 51.59C51.9463 51.2844 51.796 50.8701 51.7955 50.4379V46.8997C51.796 46.4675 51.9463 46.0532 52.2135 45.7476C52.4808 45.442 52.8431 45.2701 53.2211 45.2697H54.8987C55.2766 45.2701 55.639 45.442 55.9062 45.7476C56.1735 46.0532 56.3238 46.4675 56.3242 46.8997V50.4379C56.3238 50.8701 56.1735 51.2844 55.9062 51.59C55.639 51.8956 55.2766 52.0675 54.8987 52.068Z" fill="#E1E1E1"/>
<path d="M53.7856 49.235H24.8977C23.583 49.235 22.5134 48.3488 22.5134 47.2595V40.9077L23.9473 39.181H55.0149L56.1699 40.9113V47.2595C56.1699 48.3488 55.1003 49.235 53.7856 49.235Z" fill="white"/>
<path d="M55.6116 42.6667H22.5376L22.2015 36.9013L22.4154 36.3113L23.6586 32.8889H54.2667L55.9477 36.7753L55.6116 42.6667Z" fill="white"/>
<path d="M55.1406 36.7684L54.911 40.8875H48.1417V37.8276L54.9481 36.3141L55.1406 36.7684Z" fill="#1A3D1E"/>
<path d="M30.7474 37.8276V40.8875H24.0799L23.8514 36.8861L24.046 36.3377L30.7474 37.8276Z" fill="#1A3D1E"/>
<path d="M53.4573 34.0027H25.3261L28.3265 22.5667C28.4489 22.0944 28.7009 21.6796 29.0453 21.3837C29.3897 21.0878 29.8082 20.9264 30.239 20.9234L48.8694 20.7205C49.3195 20.7155 49.7582 20.8829 50.1155 21.1961C50.4728 21.5092 50.7282 21.95 50.8409 22.4484L53.4573 34.0027Z" fill="#FFFDFD"/>
<path d="M51.2918 32.9213L27.4871 32.5986C27.457 32.5982 27.4274 32.5897 27.4007 32.5738C27.374 32.5579 27.3509 32.5351 27.3334 32.5072C27.3158 32.4793 27.3041 32.447 27.2994 32.413C27.2947 32.3791 27.2971 32.3443 27.3062 32.3115L29.5883 24.1702C29.6007 24.1258 29.6252 24.0871 29.6581 24.0596C29.691 24.0322 29.7307 24.0174 29.7715 24.0174H48.918C48.9587 24.0174 48.9984 24.0322 49.0313 24.0596C49.0643 24.087 49.0887 24.1257 49.1012 24.1701L51.4772 32.6342C51.4865 32.6674 51.4888 32.7026 51.4838 32.737C51.4789 32.7714 51.4669 32.804 51.4488 32.832C51.4307 32.8601 51.407 32.8828 51.3797 32.8983C51.3524 32.9139 51.3222 32.9217 51.2918 32.9213Z" fill="#1A3D1E"/>
<path d="M42.5998 22.1161H36.1836C36.1295 22.1161 36.0805 22.0552 36.0556 21.9572C36.0308 21.8568 36.0344 21.75 36.0658 21.6521L36.5949 20.1222C36.6219 20.0442 36.6659 19.9977 36.7127 19.9977H42.0707C42.1175 19.9977 42.1615 20.0442 42.1885 20.1222L42.7176 21.6521C42.749 21.75 42.7526 21.8568 42.7278 21.9572C42.7029 22.0552 42.6539 22.1161 42.5998 22.1161Z" fill="white"/>
<path d="M25.3438 33.7673H21.1239V32.7067C21.1242 32.3639 21.2435 32.0351 21.4555 31.7927C21.6676 31.5503 21.955 31.4139 22.2549 31.4135H25.3438V33.7673Z" fill="white"/>
<path d="M57.6622 33.7673H53.4423V31.4135H56.5313C56.8311 31.4139 57.1186 31.5503 57.3306 31.7927C57.5426 32.0351 57.6619 32.3639 57.6622 32.7067V33.7673Z" fill="white"/>
</svg> -->
<svg xmlns="http://www.w3.org/2000/svg" x="0px" y="0px" width="64" height="64" viewBox="0 0 172 172" style="fill:#26e07f;">
    <g fill="none" fill-rule="nonzero" stroke="none" stroke-width="1" stroke-linecap="butt" stroke-linejoin="miter" stroke-miterlimit="10" stroke-dasharray="" stroke-dashoffset="0" font-family="none" font-weight="none" font-size="none" text-anchor="none" style="mix-blend-mode: normal;">
        <path d="M0,172v-172h172v172z" fill="none"></path>
        <g fill="#1fb141">
            <path d="M21.5,21.5v129h64.5v-32.25v-64.5v-32.25zM86,53.75c0,17.7805 14.4695,32.25 32.25,32.25c17.7805,0 32.25,-14.4695 32.25,-32.25c0,-17.7805 -14.4695,-32.25 -32.25,-32.25c-17.7805,0 -32.25,14.4695 -32.25,32.25zM118.25,86c-17.7805,0 -32.25,14.4695 -32.25,32.25c0,17.7805 14.4695,32.25 32.25,32.25c17.7805,0 32.25,-14.4695 32.25,-32.25c0,-17.7805 -14.4695,-32.25 -32.25,-32.25z"></path>
        </g>
    </g>
</svg>
