<svg width="1348" height="589" viewBox="0 0 1348 589" fill="none" xmlns="http://www.w3.org/2000/svg">
<g clip-path="url(#clip0_9_5)">
<path d="M1348 45.4317V541.236C1347.99 548.827 1346.14 556.295 1342.61 562.96C1340.24 567.432 1337.16 571.46 1333.49 574.874C1333.22 575.134 1332.94 575.375 1332.67 575.595C1329.34 578.594 1325.58 581.046 1321.53 582.863C1319.73 583.684 1317.88 584.373 1315.98 584.925C1314.74 585.286 1313.45 585.606 1312.17 585.846C1310.43 586.202 1308.67 586.436 1306.9 586.547C1305.91 586.627 1304.9 586.667 1303.86 586.667H858.694L836.421 587.909L815.375 586.667H44.1358C43.241 586.667 42.3268 586.647 41.4515 586.567C39.0413 586.427 36.6469 586.079 34.2933 585.526C24.5488 583.233 15.8493 577.603 9.61922 569.557C3.38912 561.51 -0.00240658 551.525 1.28123e-06 541.236V45.4317C0.0140956 33.3869 4.66866 21.8396 12.9427 13.3227C21.2167 4.8057 32.4346 0.0145082 44.1358 0H1303.86C1315.57 0.0145082 1326.78 4.8057 1335.06 13.3227C1343.33 21.8396 1347.99 33.3869 1348 45.4317Z" fill="#F2F2F2"/>
<path d="M314.806 0C245.777 165.737 259.014 367.011 314.806 586.667H702.069C750.498 366.76 775.013 158.878 702.069 0H314.806Z" fill="#E4E4E4"/>
<path d="M158.609 0C32.4764 159.782 67.666 365.318 158.609 586.667H314.806C258.476 377.554 249.268 179.783 314.806 0H158.609Z" fill="#CACACA"/>
<path d="M630.476 13.5999H571.899V73.8961H630.476V13.5999Z" fill="white"/>
<path d="M536.102 13.5999H477.526V73.8961H536.102V13.5999Z" fill="white"/>
<path d="M441.729 13.5999H383.153V73.8961H441.729V13.5999Z" fill="white"/>
<path d="M628.848 150.942H570.272V211.238H628.848V150.942Z" fill="white"/>
<path d="M534.475 150.942H475.899V211.238H534.475V150.942Z" fill="white"/>
<path d="M440.102 150.942H381.526V211.238H440.102V150.942Z" fill="white"/>
<path d="M627.221 288.283H568.645V348.58H627.221V288.283Z" fill="white"/>
<path d="M532.848 288.283H474.272V348.58H532.848V288.283Z" fill="white"/>
<path d="M438.475 288.283H379.898V348.58H438.475V288.283Z" fill="white"/>
<path d="M625.594 425.625H567.018V485.921H625.594V425.625Z" fill="white"/>
<path d="M531.221 425.625H472.645V485.921H531.221V425.625Z" fill="white"/>
<path d="M436.848 425.625H378.271V485.921H436.848V425.625Z" fill="white"/>
<path d="M623.97 562.96H565.382V586.667H623.97V562.96Z" fill="white"/>
<path d="M529.591 562.96H471.022V586.667H529.591V562.96Z" fill="white"/>
<path d="M435.211 562.96H376.642V586.667H435.211V562.96Z" fill="white"/>
<path d="M1.28123e-06 311.615V541.236C-0.00240658 551.525 3.38912 561.51 9.61922 569.557C15.8493 577.603 24.5488 583.233 34.2933 585.526C36.6469 586.079 39.0413 586.427 41.4515 586.567C42.3268 586.647 43.241 586.667 44.1358 586.667H213.929C249.577 479.206 315.117 18.0205 46.684 58.0661L1.28123e-06 311.615Z" fill="#E4E4E4"/>
<path d="M137.457 425.625H78.8806V485.921H137.457V425.625Z" fill="white"/>
<path d="M43.0855 425.624H0V485.913H43.0855V425.624Z" fill="white"/>
<path d="M135.831 562.96H77.262V586.667H135.831V562.96Z" fill="white"/>
<path d="M5.36865 562.96C8.37276 568.607 12.5026 573.537 17.4874 577.426C22.4723 581.315 28.1994 584.075 34.2933 585.526C36.6469 586.078 39.0414 586.427 41.4515 586.567V562.96H5.36865Z" fill="white"/>
<path d="M1348 376.028V541.236C1347.99 548.827 1346.14 556.295 1342.61 562.96L1339.58 560.337L1333.72 555.292L1301.32 527.4L1309.37 561.559L1299.9 562.079L1299.16 562.119L1281.96 563.081L1266.93 563.922H1266.87L1245.41 565.123L1224.46 566.284L1217.48 566.665L1172.99 569.147L1154.03 570.209L1145.43 570.689L1122.69 571.951L1092.19 573.653L1086.53 573.973L997.014 578.959L940.079 582.142L931.248 582.623L930.587 582.663L926.988 582.863H926.969L919.169 583.304L907.965 583.924L889.816 584.925L881.802 585.366L858.693 586.667L836.421 587.909L815.375 586.667L747.508 582.663L703.508 580.06L702.069 579.98L623.97 575.374L565.382 571.911L529.591 569.808L471.022 566.344L444.023 564.762L435.211 564.242L413.542 562.96L314.806 557.134L307.453 556.693L307.044 556.673L271.273 554.571L248.942 553.249L295.86 508.378L296.502 507.758L314.806 490.258C327.974 465.93 340.618 441.362 378.276 429.549L382.381 425.624L438.927 371.543L448.575 371.403L702.069 367.959L740.35 367.438L818.779 366.377L847.198 365.996L868.186 367.258L1050.02 378.23L1061.87 378.951L1122.32 382.595L1178.26 385.959L1204.86 387.561L1211.35 387.961L1211.78 387.981L1215.05 388.182L1223.8 387.381L1234.56 386.4L1238.55 386.039L1240.37 385.859L1278.67 382.375L1281.88 382.075L1291.05 381.234L1344.11 456.519L1348 376.028Z" fill="#3F3D56"/>
<path d="M1142.68 554.605C1115.73 514.449 1096.09 412.49 1103.77 370.395C1103.44 369.022 1119.52 392.114 1119.57 390.682C1119.82 383.611 1124.72 378.131 1130.5 378.443L1203.17 382.363C1204.97 382.523 1206.69 383.166 1208.18 384.227C1209.66 385.288 1210.84 386.731 1211.61 388.411L1266.56 496.72C1267.42 498.452 1267.94 500.345 1268.09 502.288C1268.62 509.336 1264.38 515.58 1258.62 516.236L1161.19 527.312C1160.87 527.349 1160.54 527.367 1160.22 527.367C1155.59 527.355 1144.02 560.022 1142.68 554.605Z" fill="white"/>
<path d="M833.337 554.231L834.052 558.215L836.817 573.553C837.376 576.671 838.24 579.724 839.398 582.663C839.743 583.584 840.135 584.485 840.55 585.366C840.757 585.807 840.965 586.227 841.195 586.668H1040.7L1073.82 582.723L1074.23 582.663C1081.06 581.697 1087.4 578.496 1092.32 573.533C1096.4 569.348 1099.64 564.374 1101.85 558.897C1104.06 553.42 1105.2 547.547 1105.2 541.616C1105.25 539.96 1105.2 538.302 1105.06 536.651C1104.88 534.31 1104.53 531.987 1104 529.703C1107.73 486.154 1097.91 443.699 1075.31 402.278C1073.46 393.424 1068.93 385.404 1062.36 379.372C1056.97 374.458 1050.11 371.59 1042.92 371.242L881.866 364.435C875.732 364.232 869.68 365.927 864.492 369.3C854.629 375.587 847.463 387.441 846.057 401.697C832.5 446.509 827.976 493.699 832.761 540.375C832.318 544.998 832.512 549.663 833.337 554.231Z" fill="white"/>
<path d="M774.376 574.647L360.575 562.252C355.373 562.095 278.436 593.347 274.701 588.487C266.521 577.843 266.321 560.319 274.255 549.345L455.023 364.814C456.68 362.316 458.883 360.255 461.456 358.794C464.028 357.334 466.898 356.516 469.833 356.406H802.926C804.501 356.407 806.068 356.647 807.576 357.118C818.677 360.563 825.595 375.43 823.026 390.324L794.937 553.212C792.744 565.741 784.427 574.612 774.834 574.654C774.682 574.654 774.529 574.652 774.376 574.647Z" fill="white"/>
<path d="M1206.97 395.126L855.285 370.16L438.927 371.547C490.143 315.799 715.252 247.83 956.342 329.937C1197.53 338.259 1215.05 388.191 1215.05 388.191L1218.06 393.044L1206.97 395.126Z" fill="#2E6434"/>
<path d="M1346.29 553.73C1345.4 556.939 1344.17 560.035 1342.61 562.96C1340.24 567.432 1337.16 571.459 1333.49 574.874C1333.22 575.134 1332.94 575.375 1332.67 575.595C1329.34 578.594 1325.58 581.046 1321.53 582.863C1319.73 583.684 1317.88 584.373 1315.98 584.925C1314.74 585.286 1313.45 585.606 1312.17 585.847C1310.43 586.202 1308.67 586.436 1306.9 586.547C1305.91 586.627 1304.9 586.667 1303.86 586.667H858.693L836.421 587.909L815.375 586.667H44.1358C43.241 586.667 42.3268 586.647 41.4514 586.567C39.0413 586.427 36.6468 586.079 34.2932 585.526L41.4514 584.445L53.317 582.663L77.262 579.059L135.831 570.249L158.609 566.825L213.929 558.515L223.169 557.134L248.942 553.249L271.681 553.71L306.48 554.431H306.908L314.806 554.591L367.695 555.672L387.127 556.073L529.669 558.976L542.701 559.236L562.134 559.637L624.009 560.918L702.069 562.5L707.282 562.6L790.866 564.322L791.955 564.342L834.593 561.238L876.317 558.215L907.926 555.932L918.118 555.192L918.507 555.172L920.764 555.012L922.242 554.891L934.652 553.99L981.083 550.627L1001.76 549.125L1010.67 548.484L1019.99 547.803L1105.2 541.616L1128.94 539.894H1128.95L1141.93 538.953L1165.72 537.231H1165.74L1190.19 535.449H1190.21L1199.7 534.769L1203.34 534.508L1231.04 532.506L1247.79 531.285L1276.53 529.202L1285.42 528.561L1297.37 527.68L1300.64 527.44L1301.32 527.4C1301.32 527.4 1311.31 527.62 1324.35 535.069C1328.47 537.436 1332.38 540.198 1336 543.318C1338.51 545.466 1340.9 547.759 1343.16 550.186C1344.21 551.307 1345.24 552.489 1346.29 553.73Z" fill="#2E6434"/>
<path d="M905.3 586.667H935.469L932.707 584.024L931.287 582.663L931.248 582.623L924.888 576.556L919.83 571.71L915.726 575.935L914.072 577.637L909.19 582.663L907.965 583.924L905.3 586.667Z" fill="#CACACA"/>
<path d="M1070.58 586.667H1116.97L1124.11 582.663L1145.43 570.689L1150.45 567.866L1190.19 535.449H1190.21L1200.19 527.32L1205.36 523.095L1211.76 517.869L1243.37 492.1C1244.24 491.385 1245.06 490.595 1245.8 489.737C1247.52 487.73 1248.83 485.383 1249.64 482.838C1250.45 480.294 1250.74 477.607 1250.51 474.94C1250.49 474.711 1250.46 474.483 1250.41 474.259C1250.07 471.325 1249.08 468.51 1247.53 466.024C1245.97 463.537 1243.89 461.445 1241.44 459.903C1237.99 457.723 1233.95 456.729 1229.92 457.063C1225.88 457.398 1222.05 459.044 1218.98 461.765L1195.79 481.888L1186.53 489.917L1150.68 521.033L1128.95 539.894H1128.94L1124.79 543.498L1086.53 573.973L1075.6 582.663L1070.58 586.667Z" fill="#FFB6B6"/>
<path d="M1231.2 516.332C1232.43 516.504 1233.67 516.259 1234.75 515.633C1235.82 515.006 1236.67 514.034 1237.15 512.865C1237.78 511.434 1238.83 510.241 1240.14 509.451C1240.4 509.302 1240.67 509.169 1240.94 509.056C1242.6 508.411 1244.09 507.363 1245.28 506C1246.46 504.637 1247.31 503 1247.75 501.227C1249.11 495.372 1253.48 489.691 1257.88 485.311C1262.68 480.517 1267.82 475.92 1271.37 470.081C1276.49 461.658 1277.93 449.838 1268.04 442.811C1263.79 439.889 1258.69 438.565 1253.61 439.061C1242.95 439.954 1234.14 446.644 1225.78 453.128L1227.87 448.895C1218.85 456.141 1208.5 461.437 1197.45 464.465C1199.36 466.256 1197.7 469.836 1195.25 470.669C1192.79 471.501 1190.14 470.624 1187.62 470.071C1184.43 469.375 1180.49 469.434 1179.23 473.352C1178.95 474.298 1178.87 475.292 1178.99 476.272C1179.1 477.253 1179.42 478.197 1179.9 479.048C1188.78 495.316 1200.84 509.518 1215.31 520.76C1218.52 523.255 1222.26 525.711 1226.26 525.222C1230.25 524.734 1233.65 519.618 1231.2 516.332Z" fill="#2E6434"/>
<path d="M1222.38 549.465L1224.46 566.284L1226.49 582.663L1226.7 584.405L1226.99 586.667H1303.86C1304.9 586.667 1305.91 586.627 1306.9 586.547C1308.67 586.436 1310.43 586.202 1312.17 585.846L1313.05 581.581L1313.55 579.039L1281.4 568.607L1266.93 563.921H1266.89L1245.98 557.114L1222.38 549.465Z" fill="#FFB6B6"/>
<path d="M1192.52 509.94C1194.1 513.524 1196.22 518.31 1198.59 523.736C1199.12 524.897 1199.64 526.099 1200.19 527.32C1201.2 529.643 1202.25 532.045 1203.34 534.508C1208.14 545.461 1213.38 557.354 1217.48 566.665C1220.88 574.454 1223.53 580.46 1224.48 582.663C1224.77 583.284 1224.91 583.604 1224.91 583.604L1226.7 584.405L1231.82 586.667H1303.86C1304.9 586.667 1305.91 586.627 1306.9 586.547C1308.67 586.436 1310.43 586.202 1312.17 585.846C1313.45 585.606 1314.74 585.286 1315.98 584.925C1317.88 584.373 1319.73 583.684 1321.53 582.863C1325.58 581.046 1329.34 578.594 1332.67 575.595C1332.83 574.213 1333.14 571.991 1333.47 569.288C1333.99 565.251 1334.27 561.185 1334.31 557.114C1334.31 553.85 1326.53 548.564 1324.35 535.069C1323.61 530.139 1323.61 525.124 1324.33 520.192C1328.35 489.797 1326.93 443.284 1298.48 434.194L1278.01 397.312H1238.97L1232.63 416.554V416.574L1228.99 427.606L1226.82 434.194L1226.35 434.835L1212.42 453.636C1212.42 453.636 1210.2 456.539 1207.17 461.125V461.145C1202.79 467.701 1198.98 474.642 1195.79 481.888C1193.71 486.582 1192.2 491.526 1191.32 496.605C1190.45 501.076 1190.87 505.711 1192.52 509.94Z" fill="#2F2E41"/>
<path d="M1274.8 360.141C1246.11 382.602 1214.17 400.477 1208.15 425.195C1208.15 425.195 1211.75 386.358 1194.93 393.719C1166.66 406.088 1176.23 338.822 1184.15 327.822C1197.37 309.49 1241.92 299.073 1241.92 299.073L1273.52 316.932L1274.8 360.141Z" fill="#2F2E41"/>
<path d="M1224.85 387.397C1252.21 387.397 1274.39 364.567 1274.39 336.404C1274.39 308.241 1252.21 285.411 1224.85 285.411C1197.49 285.411 1175.31 308.241 1175.31 336.404C1175.31 364.567 1197.49 387.397 1224.85 387.397Z" fill="#FFB6B6"/>
<path d="M1242.69 316.893L1244.6 325.511L1211.27 333.32C1211.24 331.577 1210.86 329.859 1210.16 328.274C1209.45 326.689 1208.44 325.271 1207.17 324.11C1207.89 327.489 1207.81 330.997 1206.94 334.337C1188.96 344.718 1190 348.395 1175.47 345.748C1174.5 345.976 1173.49 346.005 1172.5 345.832C1171.52 345.659 1170.58 345.288 1169.73 344.741C1168.88 344.193 1168.15 343.479 1167.57 342.64C1167 341.8 1166.58 340.852 1166.36 339.849C1160.52 313.425 1158.6 286.417 1184.14 279.858C1190.35 278.26 1196.81 277.954 1203.13 278.958C1209.46 279.962 1215.53 282.256 1220.98 285.706C1226.43 289.155 1231.16 293.69 1234.89 299.046C1238.62 304.401 1241.27 310.469 1242.69 316.893Z" fill="#2F2E41"/>
<path d="M1234.54 351.279C1232.91 343.918 1229.71 337.021 1225.17 331.087C1220.64 325.153 1214.88 320.328 1208.32 316.962C1201.75 313.595 1194.54 311.771 1187.21 311.62C1179.88 311.469 1172.6 312.996 1165.91 316.089C1168.23 309.048 1172.92 303.094 1179.13 299.306L1216.64 282.543C1235.14 278.207 1264.43 265.901 1277.8 277.686C1290.11 288.511 1284.12 309.703 1295.45 321.571C1307.88 334.577 1308.94 349.956 1305.41 358.802C1301.34 369.035 1293.18 382.997 1283 386.019C1282.47 382.417 1280.73 379.123 1278.07 376.714C1278.81 380.147 1278.87 383.695 1278.26 387.153L1216.64 437.739C1222.4 432.587 1227.3 419.311 1230.68 404.358C1232.68 395.508 1244.6 392.401 1234.93 377.38C1225.26 362.358 1235.85 357.218 1234.54 351.279Z" fill="#2F2E41"/>
<path d="M1283.89 294.856L1283.72 295.212C1283.51 295.686 1283.3 296.16 1283.12 296.655L1283.1 296.675C1282.16 297.03 1281.11 296.457 1280.07 295.548C1280.23 297.686 1280.35 299.755 1280.43 301.782L1247.63 288.569C1253.33 289.582 1254.18 268.689 1258.27 272.693C1258.5 272.91 1258.71 273.128 1258.92 273.345C1258.41 272.085 1258.06 270.763 1257.89 269.411C1257.71 267.714 1257.84 265.998 1258.27 264.349C1258.28 264.342 1258.28 264.332 1258.29 264.322C1258.29 264.312 1258.29 264.301 1258.29 264.29C1258.7 262.799 1259.33 261.385 1260.17 260.099C1261.38 258.228 1262.91 256.6 1264.68 255.294C1266.95 253.513 1269.59 252.305 1272.39 251.769C1275.2 251.233 1278.08 251.384 1280.82 252.21C1287.08 254.65 1292.26 259.37 1295.38 265.476C1298.21 270.176 1299.66 275.623 1299.55 281.155C1299.43 282.606 1299.12 284.035 1298.64 285.405C1298.04 287.329 1297.02 289.084 1295.66 290.535C1294.29 291.985 1292.62 293.092 1290.77 293.768C1290.31 293.926 1289.77 294.104 1289.19 294.322C1288.89 291.749 1288.87 289.149 1289.14 286.572C1287 289.051 1285.23 291.843 1283.89 294.856Z" fill="#2F2E41"/>
<path d="M1252.12 287.224C1252.17 288.327 1252.29 289.424 1252.51 290.506C1252.52 290.646 1252.55 290.785 1252.58 290.921C1253.93 297.07 1261.21 284.278 1266.84 288.569C1270.34 291.17 1274.23 293.172 1278.36 294.5C1278.53 294.006 1280.07 294.974 1280.28 294.5C1280.34 294.381 1280.22 292.641 1280.28 292.523C1276.77 291.132 1273.52 289.125 1270.68 286.592C1265.4 282.578 1266.14 286.335 1264.92 280.66C1263.49 274.116 1255.12 276.924 1259.42 273.82L1258.92 273.108C1255.87 275.28 1253.61 278.449 1252.53 282.104C1252.53 282.114 1252.53 282.125 1252.52 282.136C1252.52 282.146 1252.51 282.155 1252.51 282.163C1252.19 283.829 1252.06 285.527 1252.12 287.224Z" fill="#2E6434"/>
<path d="M1243.89 586.667H1279.59L1280 582.663L1281.4 568.607L1281.96 563.081L1284.37 539.033L1285.42 528.561L1287.74 505.475L1288.52 497.706C1289.01 492.561 1287.52 487.422 1284.37 483.396C1281.22 479.37 1276.66 476.779 1271.67 476.182C1270.95 476.096 1270.22 476.049 1269.49 476.042H1269.43C1268.55 476.051 1267.67 476.111 1266.79 476.222C1262.29 476.886 1258.17 479.17 1255.16 482.669C1252.31 485.952 1250.62 490.129 1250.37 494.523L1250.35 494.823V494.843L1248.66 518.95L1247.78 531.284L1247.32 538.112L1245.98 557.114L1245.41 565.123L1244.19 582.663L1243.89 586.667Z" fill="#FFB6B6"/>
<path d="M1296.86 523.6C1297.84 522.818 1298.54 521.729 1298.85 520.499C1299.17 519.269 1299.08 517.967 1298.61 516.792C1298.05 515.331 1297.95 513.728 1298.32 512.205C1298.39 511.912 1298.49 511.624 1298.6 511.343C1299.31 509.667 1299.62 507.839 1299.5 506.014C1299.38 504.189 1298.83 502.421 1297.91 500.86C1294.78 495.768 1293.88 488.58 1293.9 482.284C1293.93 475.395 1294.31 468.403 1292.73 461.709C1290.45 452.052 1283.23 442.741 1271.44 445.124C1266.44 446.217 1261.96 449.051 1258.75 453.148C1251.94 461.622 1250.44 472.785 1249.11 483.479L1247.63 478.98C1246.37 490.686 1242.83 502.01 1237.22 512.274C1239.8 512.114 1241.14 515.835 1240 518.226C1238.87 520.617 1236.41 521.956 1234.26 523.434C1231.55 525.297 1228.84 528.244 1230.69 531.906C1231.15 532.769 1231.79 533.523 1232.55 534.122C1233.31 534.721 1234.19 535.151 1235.12 535.385C1252.63 540.194 1270.93 541.222 1288.85 538.405C1292.83 537.777 1297.14 536.74 1299.59 533.452C1302.05 530.164 1300.86 524.086 1296.86 523.6Z" fill="#2E6434"/>
<path d="M918.118 565.403C918.118 571.043 920.295 576.451 924.169 580.439C928.043 584.427 933.297 586.667 938.776 586.667H981.103C986.581 586.667 991.836 584.427 995.71 580.439C999.584 576.451 1001.76 571.043 1001.76 565.403V549.191C1001.76 545.76 1000.95 542.38 999.409 539.339C997.865 536.298 995.628 533.687 992.891 531.729C990.153 529.771 986.996 528.524 983.689 528.094C980.382 527.664 977.023 528.065 973.898 529.262L931.572 545.473C927.623 546.986 924.217 549.706 921.812 553.269C919.407 556.831 918.118 561.065 918.118 565.403Z" fill="#CACACA"/>
<path d="M44.1358 582.663C43.241 582.663 42.3463 582.623 41.4515 582.563V584.445L53.317 582.663H44.1358ZM213.929 582.663V586.667H314.806V582.663H213.929ZM747.508 582.663L815.375 586.667H858.694L881.802 585.366L889.816 584.925L907.965 583.924L919.169 583.303L926.969 582.863H926.988L930.587 582.663H747.508ZM1303.86 582.663H1300.21L1300.42 586.667H1303.86C1304.9 586.667 1305.91 586.627 1306.9 586.547L1307.07 584.044L1307.19 582.503C1306.09 582.617 1304.97 582.67 1303.86 582.663ZM44.1358 582.663C43.241 582.663 42.3463 582.623 41.4515 582.563V584.445L53.317 582.663H44.1358ZM213.929 582.663V586.667H314.806V582.663H213.929ZM747.508 582.663L815.375 586.667H858.694L881.802 585.366L889.816 584.925L907.965 583.924L919.169 583.303L926.969 582.863H926.988L930.587 582.663H747.508ZM44.1358 582.663C43.241 582.663 42.3463 582.623 41.4515 582.563V584.445L53.317 582.663H44.1358ZM77.262 582.663V586.667H435.211V582.663H77.262ZM747.508 582.663L815.375 586.667H858.694L881.802 585.366L889.816 584.925L907.965 583.924L919.169 583.303L926.969 582.863H926.988L930.587 582.663H747.508ZM1303.86 582.663H1151.44C1151.23 583.984 1151.03 585.326 1150.86 586.667H1303.86C1304.9 586.667 1305.91 586.627 1306.9 586.547L1307.07 584.044L1307.19 582.503C1306.09 582.617 1304.97 582.67 1303.86 582.663ZM44.1358 582.663C43.241 582.663 42.3463 582.623 41.4515 582.563V584.445L53.317 582.663H44.1358ZM44.1358 582.663C43.241 582.663 42.3463 582.623 41.4515 582.563V584.445L53.317 582.663H44.1358ZM44.1358 582.663C43.241 582.663 42.3463 582.623 41.4515 582.563V584.445L53.317 582.663H44.1358ZM44.1358 582.663C43.241 582.663 42.3463 582.623 41.4515 582.563V584.445L53.317 582.663H44.1358ZM44.1358 582.663C43.241 582.663 42.3463 582.623 41.4515 582.563V584.445L53.317 582.663H44.1358ZM44.1358 582.663C43.241 582.663 42.3463 582.623 41.4515 582.563V584.445L53.317 582.663H44.1358ZM44.1358 582.663C43.241 582.663 42.3463 582.623 41.4515 582.563V584.445L53.317 582.663H44.1358ZM44.1358 582.663C43.241 582.663 42.3463 582.623 41.4515 582.563C35.0505 582.13 28.8435 580.124 23.3507 576.713C17.8578 573.303 13.239 568.587 9.88145 562.96H5.36868C8.37279 568.608 12.5027 573.537 17.4875 577.426C22.4723 581.315 28.1994 584.075 34.2933 585.526L41.4515 584.445L53.317 582.663H44.1358ZM1303.86 0H44.1358C32.4346 0.0145082 21.2167 4.8057 12.9427 13.3226C4.66866 21.8396 0.0140956 33.3868 1.28123e-06 45.4316V541.236C-0.00240658 551.525 3.38912 561.51 9.61922 569.557C15.8493 577.603 24.5488 583.233 34.2933 585.526C36.6469 586.078 39.0413 586.427 41.4515 586.567C42.3268 586.647 43.241 586.667 44.1358 586.667H1303.86C1304.9 586.667 1305.91 586.627 1306.9 586.547C1308.67 586.436 1310.43 586.202 1312.17 585.846C1313.45 585.606 1314.74 585.286 1315.98 584.925C1317.88 584.373 1319.73 583.684 1321.53 582.863C1325.58 581.046 1329.34 578.594 1332.67 575.595C1332.94 575.375 1333.22 575.134 1333.49 574.874C1337.16 571.459 1340.24 567.432 1342.61 562.96C1346.14 556.295 1347.99 548.826 1348 541.236V45.4316C1347.99 33.3868 1343.33 21.8396 1335.06 13.3226C1326.78 4.8057 1315.57 0.0145082 1303.86 0ZM1344.11 541.236C1344.11 544.246 1343.79 547.247 1343.16 550.186C1342.41 553.72 1341.21 557.135 1339.58 560.337C1338.06 563.349 1336.19 566.154 1333.99 568.687V568.707L1333.98 568.727C1333.82 568.907 1333.64 569.107 1333.47 569.288C1328.67 574.688 1322.55 578.67 1315.75 580.821C1315.13 581.021 1314.5 581.201 1313.88 581.381C1313.61 581.461 1313.34 581.521 1313.05 581.582C1311.12 582.044 1309.16 582.352 1307.19 582.503C1306.09 582.617 1304.97 582.67 1303.86 582.663H44.1358C43.241 582.663 42.3463 582.623 41.4515 582.563C31.2683 581.857 21.7254 577.196 14.7526 569.525C7.77982 561.853 3.89733 551.742 3.89024 541.236V315.719C3.89024 314.338 3.89023 312.976 3.90969 311.614C4.92368 229.648 37.2768 151.395 93.9573 93.8151C150.638 36.235 227.079 3.96705 306.714 4.00456H1303.86C1309.15 4.00347 1314.38 5.07426 1319.27 7.15578C1324.15 9.23731 1328.59 12.2888 1332.32 16.1358C1336.06 19.9829 1339.03 24.5503 1341.05 29.5769C1343.07 34.6036 1344.11 39.991 1344.11 45.4316L1344.11 541.236ZM44.1358 582.663C43.241 582.663 42.3463 582.623 41.4515 582.563V584.445L53.317 582.663H44.1358ZM44.1358 582.663C43.241 582.663 42.3463 582.623 41.4515 582.563V584.445L53.317 582.663H44.1358ZM44.1358 582.663C43.241 582.663 42.3463 582.623 41.4515 582.563V584.445L53.317 582.663H44.1358ZM44.1358 582.663C43.241 582.663 42.3463 582.623 41.4515 582.563V584.445L53.317 582.663H44.1358ZM44.1358 582.663C43.241 582.663 42.3463 582.623 41.4515 582.563V584.445L53.317 582.663H44.1358ZM44.1358 582.663C43.241 582.663 42.3463 582.623 41.4515 582.563V584.445L53.317 582.663H44.1358ZM44.1358 582.663C43.241 582.663 42.3463 582.623 41.4515 582.563V584.445L53.317 582.663H44.1358ZM44.1358 582.663C43.241 582.663 42.3463 582.623 41.4515 582.563V584.445L53.317 582.663H44.1358ZM747.508 582.663L815.375 586.667H858.694L881.802 585.366L889.816 584.925L907.965 583.924L919.169 583.303L926.969 582.863H926.988L930.587 582.663H747.508ZM213.929 582.663V586.667H314.806V582.663H213.929ZM44.1358 582.663C43.241 582.663 42.3463 582.623 41.4515 582.563V584.445L53.317 582.663H44.1358ZM747.508 582.663L815.375 586.667H858.694L881.802 585.366L889.816 584.925L907.965 583.924L919.169 583.303L926.969 582.863H926.988L930.587 582.663H747.508ZM213.929 582.663V586.667H314.806V582.663H213.929ZM44.1358 582.663C43.241 582.663 42.3463 582.623 41.4515 582.563V584.445L53.317 582.663H44.1358ZM1303.86 582.663H1300.21L1300.42 586.667H1303.86C1304.9 586.667 1305.91 586.627 1306.9 586.547L1307.07 584.044L1307.19 582.503C1306.09 582.617 1304.97 582.67 1303.86 582.663ZM747.508 582.663L815.375 586.667H858.694L881.802 585.366L889.816 584.925L907.965 583.924L919.169 583.303L926.969 582.863H926.988L930.587 582.663H747.508ZM213.929 582.663V586.667H314.806V582.663H213.929Z" fill="#1A3D1E"/>
</g>
<defs>
<clipPath id="clip0_9_5">
<rect width="1348" height="589" fill="white"/>
</clipPath>
</defs>
</svg>
