<svg width="176" height="64" viewBox="0 0 176 64" fill="none" xmlns="http://www.w3.org/2000/svg">
<path d="M75.7784 42C75.7405 41.5265 75.563 41.1572 75.2457 40.892C74.9332 40.6269 74.4574 40.4943 73.8182 40.4943C73.411 40.4943 73.0772 40.544 72.8168 40.6435C72.5611 40.7382 72.3717 40.8684 72.2486 41.0341C72.1255 41.1998 72.0616 41.3892 72.0568 41.6023C72.0473 41.7775 72.0781 41.9361 72.1491 42.0781C72.2249 42.2154 72.3433 42.3409 72.5043 42.4545C72.6652 42.5634 72.8712 42.6629 73.1222 42.7528C73.3731 42.8428 73.6714 42.9233 74.017 42.9943L75.2102 43.25C76.0152 43.4205 76.7041 43.6454 77.277 43.9247C77.8499 44.2041 78.3187 44.5331 78.6832 44.9119C79.0478 45.286 79.3153 45.7074 79.4858 46.1761C79.661 46.6449 79.7509 47.1562 79.7557 47.7102C79.7509 48.6667 79.5118 49.4763 79.0384 50.1392C78.5649 50.8021 77.8878 51.3063 77.0071 51.652C76.1312 51.9976 75.0777 52.1705 73.8466 52.1705C72.5824 52.1705 71.4792 51.9834 70.5369 51.6094C69.5994 51.2353 68.8703 50.66 68.3494 49.8835C67.8333 49.1023 67.5729 48.1032 67.5682 46.8864H71.3182C71.3419 47.3314 71.4531 47.7055 71.652 48.0085C71.8509 48.3116 72.1302 48.5412 72.4901 48.6974C72.8546 48.8537 73.2879 48.9318 73.7898 48.9318C74.2112 48.9318 74.5639 48.8797 74.848 48.7756C75.1321 48.6714 75.3475 48.527 75.4943 48.3423C75.6411 48.1577 75.7169 47.947 75.7216 47.7102C75.7169 47.4877 75.6435 47.2936 75.5014 47.1278C75.3641 46.9574 75.1368 46.8059 74.8196 46.6733C74.5024 46.536 74.0739 46.4081 73.5341 46.2898L72.0852 45.9773C70.7973 45.6979 69.7817 45.2315 69.0384 44.5781C68.2997 43.92 67.9328 43.0227 67.9375 41.8864C67.9328 40.9631 68.179 40.1558 68.6761 39.4645C69.178 38.7685 69.8717 38.2263 70.7571 37.8381C71.6473 37.4498 72.6676 37.2557 73.8182 37.2557C74.9924 37.2557 76.008 37.4522 76.8651 37.8452C77.7221 38.2382 78.3826 38.7921 78.8466 39.5071C79.3153 40.2173 79.5521 41.0483 79.5568 42H75.7784ZM81.2578 52V37.4545H85.2067V43.1364H90.4339V37.4545H94.3828V52H90.4339V46.3182H85.2067V52H81.2578ZM100.036 52H95.7749L100.576 37.4545H105.974L110.775 52H106.513L103.332 41.4602H103.218L100.036 52ZM99.2408 46.2614H107.252V49.2159H99.2408V46.2614ZM112.176 52V37.4545H116.125V43.1364H121.352V37.4545H125.301V52H121.352V46.3182H116.125V52H112.176ZM131.125 37.4545V52H127.176V37.4545H131.125ZM138.593 52H132.996V37.4545H138.536C140.032 37.4545 141.325 37.7457 142.414 38.3281C143.507 38.9058 144.35 39.7391 144.942 40.8281C145.539 41.9124 145.837 43.2121 145.837 44.7273C145.837 46.2424 145.541 47.5445 144.949 48.6335C144.357 49.7178 143.519 50.5511 142.435 51.1335C141.351 51.7112 140.07 52 138.593 52ZM136.945 48.6477H138.451C139.17 48.6477 139.783 48.5317 140.29 48.2997C140.801 48.0677 141.19 47.6676 141.455 47.0994C141.725 46.5312 141.86 45.7405 141.86 44.7273C141.86 43.714 141.722 42.9233 141.448 42.3551C141.178 41.7869 140.78 41.3868 140.255 41.1548C139.734 40.9228 139.095 40.8068 138.337 40.8068H136.945V48.6477Z" fill="#2E6434"/>
<path d="M71.2894 31H68.5962V22.2727H71.4087C72.2553 22.2727 72.9797 22.4474 73.582 22.7969C74.1843 23.1435 74.6459 23.642 74.9669 24.2926C75.288 24.9403 75.4485 25.7159 75.4485 26.6193C75.4485 27.5284 75.2865 28.3111 74.9627 28.9673C74.6388 29.6207 74.1672 30.1236 73.5479 30.4759C72.9286 30.8253 72.1757 31 71.2894 31ZM69.653 30.0625H71.2212C71.9428 30.0625 72.5408 29.9233 73.0152 29.6449C73.4897 29.3665 73.8434 28.9702 74.0763 28.456C74.3093 27.9418 74.4257 27.3295 74.4257 26.6193C74.4257 25.9148 74.3107 25.3082 74.0806 24.7997C73.8505 24.2884 73.5067 23.8963 73.0493 23.6236C72.5919 23.348 72.0223 23.2102 71.3405 23.2102H69.653V30.0625ZM78.1812 31V22.2727H81.1301C81.8119 22.2727 82.3715 22.3892 82.809 22.6222C83.2465 22.8523 83.5704 23.169 83.7806 23.5724C83.9909 23.9759 84.096 24.4347 84.096 24.9489C84.096 25.4631 83.9909 25.919 83.7806 26.3168C83.5704 26.7145 83.248 27.027 82.8133 27.2543C82.3786 27.4787 81.8232 27.5909 81.1471 27.5909H78.7607V26.6364H81.113C81.5789 26.6364 81.9539 26.5682 82.238 26.4318C82.5249 26.2955 82.7323 26.1023 82.8602 25.8523C82.9909 25.5994 83.0562 25.2983 83.0562 24.9489C83.0562 24.5994 82.9909 24.294 82.8602 24.0327C82.7295 23.7713 82.5207 23.5696 82.2337 23.4276C81.9468 23.2827 81.5676 23.2102 81.096 23.2102H79.238V31H78.1812ZM82.2891 27.0795L84.4369 31H83.2096L81.096 27.0795H82.2891ZM87.8738 22.2727V31H86.817V22.2727H87.8738ZM91.3107 22.2727L93.9016 29.6193H94.0039L96.5948 22.2727H97.7028L94.4982 31H93.4073L90.2028 22.2727H91.3107ZM100.022 31V22.2727H105.289V23.2102H101.079V26.1591H105.016V27.0966H101.079V30.0625H105.357V31H100.022ZM114.074 31L111.688 22.2727H112.762L114.586 29.3807H114.671L116.529 22.2727H117.722L119.58 29.3807H119.665L121.489 22.2727H122.563L120.177 31H119.086L117.159 24.0455H117.091L115.165 31H114.074ZM125.896 22.2727V31H124.84V22.2727H125.896ZM128.498 23.2102V22.2727H135.044V23.2102H132.299V31H131.242V23.2102H128.498ZM137.635 31V22.2727H138.691V26.1591H143.345V22.2727H144.402V31H143.345V27.0966H138.691V31H137.635Z" fill="#2E6434"/>
<path d="M23.8876 45.3873C23.5369 45.3878 23.2007 45.5473 22.9528 45.8308C22.7048 46.1143 22.5653 46.4987 22.5649 46.8997V50.4379C22.5653 50.8389 22.7048 51.2233 22.9528 51.5068C23.2007 51.7903 23.5369 51.9498 23.8876 51.9503H25.5652C25.9158 51.9498 26.252 51.7903 26.5 51.5068C26.7479 51.2233 26.8874 50.8389 26.8878 50.4379V46.8997C26.8874 46.4987 26.7479 46.1143 26.5 45.8308C26.252 45.5473 25.9158 45.3878 25.5652 45.3873H23.8876Z" fill="#2E6434"/>
<path d="M54.8986 52.068H53.2209C52.843 52.0675 52.4807 51.8956 52.2134 51.59C51.9462 51.2844 51.7958 50.8701 51.7954 50.4379V46.8997C51.7958 46.4675 51.9462 46.0532 52.2134 45.7476C52.4807 45.442 52.843 45.2701 53.2209 45.2697H54.8986C55.2765 45.2701 55.6389 45.442 55.9061 45.7476C56.1733 46.0532 56.3237 46.4675 56.3241 46.8997V50.4379C56.3237 50.8701 56.1733 51.2844 55.9061 51.59C55.6389 51.8956 55.2765 52.0675 54.8986 52.068Z" fill="#2E6434"/>
<path d="M53.7856 49.2351H24.8977C23.583 49.2351 22.5134 48.3488 22.5134 47.2595V40.9077L23.9473 39.181H55.0149L56.1699 40.9113V47.2595C56.1699 48.3488 55.1003 49.2351 53.7856 49.2351Z" fill="#2E6434"/>
<path d="M55.6115 42.6667H22.5375L22.2014 36.9013L22.4153 36.3114L23.6585 32.8889H54.2667L55.9477 36.7753L55.6115 42.6667Z" fill="#2E6434"/>
<path d="M55.1405 36.7684L54.911 40.8875H48.1416V37.8275L54.948 36.3141L55.1405 36.7684Z" fill="white"/>
<path d="M30.7474 37.8275V40.8875H24.0798L23.8513 36.886L24.0459 36.3376L30.7474 37.8275Z" fill="white"/>
<path d="M53.4574 34.0027H25.3262L28.3266 22.5667C28.4489 22.0944 28.701 21.6796 29.0454 21.3837C29.3898 21.0878 29.8083 20.9264 30.2391 20.9234L48.8694 20.7205C49.3196 20.7155 49.7583 20.8829 50.1156 21.1961C50.4729 21.5092 50.7282 21.95 50.841 22.4484L53.4574 34.0027Z" fill="#2E6434"/>
<path d="M51.2918 32.9214L27.4872 32.5986C27.4571 32.5982 27.4275 32.5897 27.4008 32.5738C27.3741 32.558 27.351 32.5352 27.3334 32.5072C27.3158 32.4793 27.3042 32.4471 27.2995 32.4131C27.2948 32.3791 27.2971 32.3443 27.3063 32.3115L29.5883 24.1702C29.6008 24.1258 29.6252 24.0871 29.6581 24.0597C29.6911 24.0322 29.7308 24.0174 29.7715 24.0174H48.9181C48.9588 24.0174 48.9985 24.0322 49.0314 24.0596C49.0643 24.0871 49.0888 24.1258 49.1012 24.1701L51.4772 32.6342C51.4866 32.6674 51.4888 32.7027 51.4839 32.7371C51.479 32.7715 51.4669 32.804 51.4488 32.8321C51.4307 32.8601 51.407 32.8828 51.3797 32.8984C51.3524 32.9139 51.3223 32.9218 51.2918 32.9214Z" fill="white"/>
<path d="M42.5998 22.1161H36.1836C36.1295 22.1161 36.0805 22.0552 36.0556 21.9572C36.0308 21.8568 36.0344 21.7501 36.0658 21.6522L36.5949 20.1222C36.6219 20.0442 36.6659 19.9977 36.7127 19.9977H42.0707C42.1175 19.9977 42.1615 20.0442 42.1885 20.1222L42.7176 21.6522C42.749 21.7501 42.7526 21.8568 42.7278 21.9572C42.7029 22.0552 42.6539 22.1161 42.5998 22.1161Z" fill="#2E6434"/>
<path d="M25.3439 33.7673H21.124V32.7067C21.1244 32.3639 21.2436 32.0351 21.4556 31.7927C21.6677 31.5503 21.9551 31.4139 22.255 31.4135H25.3439V33.7673Z" fill="#2E6434"/>
<path d="M57.6623 33.7673H53.4424V31.4135H56.5313C56.8312 31.4139 57.1187 31.5503 57.3307 31.7927C57.5427 32.0351 57.662 32.3639 57.6623 32.7067V33.7673Z" fill="#2E6434"/>
</svg>
