<svg width="176" height="64" viewBox="0 0 176 64" fill="none" xmlns="http://www.w3.org/2000/svg">
<path d="M23.8875 45.3873C23.5368 45.3878 23.2007 45.5473 22.9527 45.8308C22.7047 46.1143 22.5653 46.4987 22.5649 46.8997V50.4379C22.5653 50.8389 22.7047 51.2233 22.9527 51.5068C23.2007 51.7903 23.5368 51.9498 23.8875 51.9503H25.5651C25.9158 51.9498 26.252 51.7903 26.4999 51.5068C26.7479 51.2233 26.8873 50.8389 26.8877 50.4379V46.8997C26.8873 46.4987 26.7479 46.1143 26.4999 45.8308C26.252 45.5473 25.9158 45.3878 25.5651 45.3873H23.8875Z" fill="#E1E1E1"/>
<path d="M54.8987 52.068H53.2211C52.8431 52.0675 52.4808 51.8956 52.2135 51.59C51.9463 51.2844 51.796 50.8701 51.7955 50.4379V46.8997C51.796 46.4675 51.9463 46.0532 52.2135 45.7476C52.4808 45.442 52.8431 45.2701 53.2211 45.2697H54.8987C55.2766 45.2701 55.639 45.442 55.9062 45.7476C56.1735 46.0532 56.3238 46.4675 56.3242 46.8997V50.4379C56.3238 50.8701 56.1735 51.2844 55.9062 51.59C55.639 51.8956 55.2766 52.0675 54.8987 52.068Z" fill="#E1E1E1"/>
<path d="M53.7856 49.235H24.8977C23.583 49.235 22.5134 48.3488 22.5134 47.2595V40.9077L23.9473 39.181H55.0149L56.1699 40.9113V47.2595C56.1699 48.3488 55.1003 49.235 53.7856 49.235Z" fill="white"/>
<path d="M55.6116 42.6667H22.5376L22.2015 36.9013L22.4154 36.3113L23.6586 32.8889H54.2667L55.9477 36.7753L55.6116 42.6667Z" fill="white"/>
<path d="M55.1406 36.7684L54.911 40.8875H48.1417V37.8276L54.9481 36.3141L55.1406 36.7684Z" fill="#1A3D1E"/>
<path d="M30.7474 37.8276V40.8875H24.0799L23.8514 36.8861L24.046 36.3377L30.7474 37.8276Z" fill="#1A3D1E"/>
<path d="M53.4573 34.0027H25.3261L28.3265 22.5667C28.4489 22.0944 28.7009 21.6796 29.0453 21.3837C29.3897 21.0878 29.8082 20.9264 30.239 20.9234L48.8694 20.7205C49.3195 20.7155 49.7582 20.8829 50.1155 21.1961C50.4728 21.5092 50.7282 21.95 50.8409 22.4484L53.4573 34.0027Z" fill="#FFFDFD"/>
<path d="M51.2918 32.9213L27.4871 32.5986C27.457 32.5982 27.4274 32.5897 27.4007 32.5738C27.374 32.5579 27.3509 32.5351 27.3334 32.5072C27.3158 32.4793 27.3041 32.447 27.2994 32.413C27.2947 32.3791 27.2971 32.3443 27.3062 32.3115L29.5883 24.1702C29.6007 24.1258 29.6252 24.0871 29.6581 24.0596C29.691 24.0322 29.7307 24.0174 29.7715 24.0174H48.918C48.9587 24.0174 48.9984 24.0322 49.0313 24.0596C49.0643 24.087 49.0887 24.1257 49.1012 24.1701L51.4772 32.6342C51.4865 32.6674 51.4888 32.7026 51.4838 32.737C51.4789 32.7714 51.4669 32.804 51.4488 32.832C51.4307 32.8601 51.407 32.8828 51.3797 32.8983C51.3524 32.9139 51.3222 32.9217 51.2918 32.9213Z" fill="#1A3D1E"/>
<path d="M42.5998 22.1161H36.1836C36.1295 22.1161 36.0805 22.0552 36.0556 21.9572C36.0308 21.8568 36.0344 21.75 36.0658 21.6521L36.5949 20.1222C36.6219 20.0442 36.6659 19.9977 36.7127 19.9977H42.0707C42.1175 19.9977 42.1615 20.0442 42.1885 20.1222L42.7176 21.6521C42.749 21.75 42.7526 21.8568 42.7278 21.9572C42.7029 22.0552 42.6539 22.1161 42.5998 22.1161Z" fill="white"/>
<path d="M25.3438 33.7673H21.1239V32.7067C21.1242 32.3639 21.2435 32.0351 21.4555 31.7927C21.6676 31.5503 21.955 31.4139 22.2549 31.4135H25.3438V33.7673Z" fill="white"/>
<path d="M57.6622 33.7673H53.4423V31.4135H56.5313C56.8311 31.4139 57.1186 31.5503 57.3306 31.7927C57.5426 32.0351 57.6619 32.3639 57.6622 32.7067V33.7673Z" fill="white"/>
<path d="M66.75 52H64.0568V43.2727H66.8693C67.7159 43.2727 68.4403 43.4474 69.0426 43.7969C69.6449 44.1435 70.1065 44.642 70.4276 45.2926C70.7486 45.9403 70.9091 46.7159 70.9091 47.6193C70.9091 48.5284 70.7472 49.3111 70.4233 49.9673C70.0994 50.6207 69.6278 51.1236 69.0085 51.4759C68.3892 51.8253 67.6364 52 66.75 52ZM65.1136 51.0625H66.6818C67.4034 51.0625 68.0014 50.9233 68.4759 50.6449C68.9503 50.3665 69.304 49.9702 69.5369 49.456C69.7699 48.9418 69.8864 48.3295 69.8864 47.6193C69.8864 46.9148 69.7713 46.3082 69.5412 45.7997C69.3111 45.2884 68.9673 44.8963 68.5099 44.6236C68.0526 44.348 67.483 44.2102 66.8011 44.2102H65.1136V51.0625ZM72.6818 52V43.2727H75.6307C76.3125 43.2727 76.8722 43.3892 77.3097 43.6222C77.7472 43.8523 78.071 44.169 78.2812 44.5724C78.4915 44.9759 78.5966 45.4347 78.5966 45.9489C78.5966 46.4631 78.4915 46.919 78.2812 47.3168C78.071 47.7145 77.7486 48.027 77.3139 48.2543C76.8793 48.4787 76.3239 48.5909 75.6477 48.5909H73.2614V47.6364H75.6136C76.0795 47.6364 76.4545 47.5682 76.7386 47.4318C77.0256 47.2955 77.233 47.1023 77.3608 46.8523C77.4915 46.5994 77.5568 46.2983 77.5568 45.9489C77.5568 45.5994 77.4915 45.294 77.3608 45.0327C77.2301 44.7713 77.0213 44.5696 76.7344 44.4276C76.4474 44.2827 76.0682 44.2102 75.5966 44.2102H73.7386V52H72.6818ZM76.7898 48.0795L78.9375 52H77.7102L75.5966 48.0795H76.7898ZM81.4144 43.2727V52H80.3576V43.2727H81.4144ZM83.8913 43.2727L86.4822 50.6193H86.5845L89.1754 43.2727H90.2834L87.0788 52H85.9879L82.7834 43.2727H83.8913ZM92.6996 43.2727V52H91.6428V43.2727H92.6996ZM101.739 43.2727V52H100.716L95.9606 45.1477H95.8754V52H94.8185V43.2727H95.8413L100.614 50.142H100.699V43.2727H101.739ZM109.82 46C109.726 45.7131 109.602 45.456 109.449 45.2287C109.298 44.9986 109.118 44.8026 108.908 44.6406C108.7 44.4787 108.464 44.3551 108.2 44.2699C107.936 44.1847 107.646 44.142 107.331 44.142C106.814 44.142 106.344 44.2756 105.92 44.5426C105.497 44.8097 105.161 45.2031 104.911 45.723C104.661 46.2429 104.536 46.8807 104.536 47.6364C104.536 48.392 104.662 49.0298 104.915 49.5497C105.168 50.0696 105.51 50.4631 105.942 50.7301C106.374 50.9972 106.859 51.1307 107.399 51.1307C107.899 51.1307 108.339 51.0241 108.72 50.8111C109.104 50.5952 109.402 50.2912 109.615 49.8991C109.831 49.5043 109.939 49.0398 109.939 48.5057L110.263 48.5739H107.638V47.6364H110.962V48.5739C110.962 49.2926 110.808 49.9176 110.501 50.4489C110.197 50.9801 109.777 51.392 109.24 51.6847C108.706 51.9744 108.092 52.1193 107.399 52.1193C106.626 52.1193 105.947 51.9375 105.362 51.5739C104.78 51.2102 104.325 50.6932 103.999 50.0227C103.675 49.3523 103.513 48.5568 103.513 47.6364C103.513 46.946 103.605 46.3253 103.79 45.7741C103.977 45.2202 104.241 44.7486 104.582 44.3594C104.923 43.9702 105.327 43.6719 105.793 43.4645C106.259 43.2571 106.771 43.1534 107.331 43.1534C107.791 43.1534 108.22 43.223 108.618 43.3622C109.018 43.4986 109.375 43.6932 109.688 43.946C110.003 44.196 110.266 44.4957 110.476 44.8452C110.686 45.1918 110.831 45.5767 110.911 46H109.82ZM120.919 45.4545C120.868 45.0227 120.661 44.6875 120.297 44.4489C119.934 44.2102 119.488 44.0909 118.959 44.0909C118.573 44.0909 118.235 44.1534 117.945 44.2784C117.658 44.4034 117.434 44.5753 117.272 44.794C117.113 45.0128 117.033 45.2614 117.033 45.5398C117.033 45.7727 117.088 45.973 117.199 46.1406C117.313 46.3054 117.458 46.4432 117.634 46.554C117.81 46.6619 117.995 46.7514 118.188 46.8224C118.381 46.8906 118.559 46.946 118.721 46.9886L119.607 47.2273C119.834 47.2869 120.087 47.3693 120.365 47.4744C120.647 47.5795 120.915 47.723 121.171 47.9048C121.429 48.0838 121.642 48.3139 121.81 48.5952C121.978 48.8764 122.061 49.2216 122.061 49.6307C122.061 50.1023 121.938 50.5284 121.691 50.9091C121.446 51.2898 121.088 51.5923 120.617 51.8168C120.148 52.0412 119.578 52.1534 118.908 52.1534C118.283 52.1534 117.742 52.0526 117.284 51.8509C116.83 51.6491 116.472 51.3679 116.211 51.0071C115.952 50.6463 115.806 50.2273 115.772 49.75H116.863C116.891 50.0795 117.002 50.3523 117.195 50.5682C117.391 50.7812 117.638 50.9403 117.936 51.0455C118.238 51.1477 118.561 51.1989 118.908 51.1989C119.311 51.1989 119.674 51.1335 119.995 51.0028C120.316 50.8693 120.57 50.6847 120.757 50.4489C120.945 50.2102 121.039 49.9318 121.039 49.6136C121.039 49.3239 120.958 49.0881 120.796 48.9062C120.634 48.7244 120.421 48.5767 120.157 48.4631C119.892 48.3494 119.607 48.25 119.3 48.1648L118.226 47.858C117.544 47.6619 117.005 47.3821 116.607 47.0185C116.209 46.6548 116.01 46.179 116.01 45.5909C116.01 45.1023 116.142 44.6761 116.407 44.3125C116.674 43.946 117.032 43.6619 117.48 43.4602C117.932 43.2557 118.436 43.1534 118.993 43.1534C119.556 43.1534 120.056 43.2543 120.493 43.456C120.931 43.6548 121.277 43.9276 121.533 44.2741C121.792 44.6207 121.928 45.0142 121.942 45.4545H120.919ZM130.822 46H129.765C129.702 45.696 129.593 45.429 129.437 45.1989C129.283 44.9688 129.096 44.7756 128.874 44.6193C128.656 44.4602 128.413 44.3409 128.146 44.2614C127.879 44.1818 127.6 44.142 127.31 44.142C126.782 44.142 126.303 44.2756 125.874 44.5426C125.448 44.8097 125.109 45.2031 124.856 45.723C124.606 46.2429 124.481 46.8807 124.481 47.6364C124.481 48.392 124.606 49.0298 124.856 49.5497C125.109 50.0696 125.448 50.4631 125.874 50.7301C126.303 50.9972 126.782 51.1307 127.31 51.1307C127.6 51.1307 127.879 51.0909 128.146 51.0114C128.413 50.9318 128.656 50.8139 128.874 50.6577C129.096 50.4986 129.283 50.304 129.437 50.0739C129.593 49.8409 129.702 49.5739 129.765 49.2727H130.822C130.742 49.7187 130.597 50.1179 130.387 50.4702C130.177 50.8224 129.915 51.1222 129.603 51.3693C129.29 51.6136 128.94 51.7997 128.55 51.9276C128.164 52.0554 127.751 52.1193 127.31 52.1193C126.566 52.1193 125.904 51.9375 125.325 51.5739C124.745 51.2102 124.289 50.6932 123.957 50.0227C123.624 49.3523 123.458 48.5568 123.458 47.6364C123.458 46.7159 123.624 45.9205 123.957 45.25C124.289 44.5795 124.745 44.0625 125.325 43.6989C125.904 43.3352 126.566 43.1534 127.31 43.1534C127.751 43.1534 128.164 43.2173 128.55 43.3452C128.94 43.473 129.29 43.6605 129.603 43.9077C129.915 44.152 130.177 44.4503 130.387 44.8026C130.597 45.152 130.742 45.5511 130.822 46ZM132.529 52V43.2727H133.586V47.1591H138.24V43.2727H139.297V52H138.24V48.0966H133.586V52H132.529ZM148.776 47.6364C148.776 48.5568 148.61 49.3523 148.277 50.0227C147.945 50.6932 147.489 51.2102 146.909 51.5739C146.33 51.9375 145.668 52.1193 144.924 52.1193C144.179 52.1193 143.517 51.9375 142.938 51.5739C142.358 51.2102 141.902 50.6932 141.57 50.0227C141.238 49.3523 141.071 48.5568 141.071 47.6364C141.071 46.7159 141.238 45.9205 141.57 45.25C141.902 44.5795 142.358 44.0625 142.938 43.6989C143.517 43.3352 144.179 43.1534 144.924 43.1534C145.668 43.1534 146.33 43.3352 146.909 43.6989C147.489 44.0625 147.945 44.5795 148.277 45.25C148.61 45.9205 148.776 46.7159 148.776 47.6364ZM147.753 47.6364C147.753 46.8807 147.627 46.2429 147.374 45.723C147.124 45.2031 146.784 44.8097 146.355 44.5426C145.929 44.2756 145.452 44.142 144.924 44.142C144.395 44.142 143.917 44.2756 143.488 44.5426C143.061 44.8097 142.722 45.2031 142.469 45.723C142.219 46.2429 142.094 46.8807 142.094 47.6364C142.094 48.392 142.219 49.0298 142.469 49.5497C142.722 50.0696 143.061 50.4631 143.488 50.7301C143.917 50.9972 144.395 51.1307 144.924 51.1307C145.452 51.1307 145.929 50.9972 146.355 50.7301C146.784 50.4631 147.124 50.0696 147.374 49.5497C147.627 49.0298 147.753 48.392 147.753 47.6364ZM157.917 47.6364C157.917 48.5568 157.75 49.3523 157.418 50.0227C157.086 50.6932 156.63 51.2102 156.05 51.5739C155.471 51.9375 154.809 52.1193 154.064 52.1193C153.32 52.1193 152.658 51.9375 152.078 51.5739C151.499 51.2102 151.043 50.6932 150.711 50.0227C150.378 49.3523 150.212 48.5568 150.212 47.6364C150.212 46.7159 150.378 45.9205 150.711 45.25C151.043 44.5795 151.499 44.0625 152.078 43.6989C152.658 43.3352 153.32 43.1534 154.064 43.1534C154.809 43.1534 155.471 43.3352 156.05 43.6989C156.63 44.0625 157.086 44.5795 157.418 45.25C157.75 45.9205 157.917 46.7159 157.917 47.6364ZM156.894 47.6364C156.894 46.8807 156.767 46.2429 156.515 45.723C156.265 45.2031 155.925 44.8097 155.496 44.5426C155.07 44.2756 154.593 44.142 154.064 44.142C153.536 44.142 153.057 44.2756 152.628 44.5426C152.202 44.8097 151.863 45.2031 151.61 45.723C151.36 46.2429 151.235 46.8807 151.235 47.6364C151.235 48.392 151.36 49.0298 151.61 49.5497C151.863 50.0696 152.202 50.4631 152.628 50.7301C153.057 50.9972 153.536 51.1307 154.064 51.1307C154.593 51.1307 155.07 50.9972 155.496 50.7301C155.925 50.4631 156.265 50.0696 156.515 49.5497C156.767 49.0298 156.894 48.392 156.894 47.6364ZM159.694 52V43.2727H160.75V51.0625H164.807V52H159.694Z" fill="white"/>
<path d="M71.7784 25C71.7405 24.5265 71.563 24.1572 71.2457 23.892C70.9332 23.6269 70.4574 23.4943 69.8182 23.4943C69.411 23.4943 69.0772 23.544 68.8168 23.6435C68.5611 23.7382 68.3717 23.8684 68.2486 24.0341C68.1255 24.1998 68.0616 24.3892 68.0568 24.6023C68.0473 24.7775 68.0781 24.9361 68.1491 25.0781C68.2249 25.2154 68.3433 25.3409 68.5043 25.4545C68.6652 25.5634 68.8712 25.6629 69.1222 25.7528C69.3731 25.8428 69.6714 25.9233 70.017 25.9943L71.2102 26.25C72.0152 26.4205 72.7041 26.6454 73.277 26.9247C73.8499 27.2041 74.3187 27.5331 74.6832 27.9119C75.0478 28.286 75.3153 28.7074 75.4858 29.1761C75.661 29.6449 75.7509 30.1562 75.7557 30.7102C75.7509 31.6667 75.5118 32.4763 75.0384 33.1392C74.5649 33.8021 73.8878 34.3063 73.0071 34.652C72.1312 34.9976 71.0777 35.1705 69.8466 35.1705C68.5824 35.1705 67.4792 34.9834 66.5369 34.6094C65.5994 34.2353 64.8703 33.66 64.3494 32.8835C63.8333 32.1023 63.5729 31.1032 63.5682 29.8864H67.3182C67.3419 30.3314 67.4531 30.7055 67.652 31.0085C67.8509 31.3116 68.1302 31.5412 68.4901 31.6974C68.8546 31.8537 69.2879 31.9318 69.7898 31.9318C70.2112 31.9318 70.5639 31.8797 70.848 31.7756C71.1321 31.6714 71.3475 31.527 71.4943 31.3423C71.6411 31.1577 71.7169 30.947 71.7216 30.7102C71.7169 30.4877 71.6435 30.2936 71.5014 30.1278C71.3641 29.9574 71.1368 29.8059 70.8196 29.6733C70.5024 29.536 70.0739 29.4081 69.5341 29.2898L68.0852 28.9773C66.7973 28.6979 65.7817 28.2315 65.0384 27.5781C64.2997 26.92 63.9328 26.0227 63.9375 24.8864C63.9328 23.9631 64.179 23.1558 64.6761 22.4645C65.178 21.7685 65.8717 21.2263 66.7571 20.8381C67.6473 20.4498 68.6676 20.2557 69.8182 20.2557C70.9924 20.2557 72.008 20.4522 72.8651 20.8452C73.7221 21.2382 74.3826 21.7921 74.8466 22.5071C75.3153 23.2173 75.5521 24.0483 75.5568 25H71.7784ZM77.2578 35V20.4545H81.2067V26.1364H86.4339V20.4545H90.3828V35H86.4339V29.3182H81.2067V35H77.2578ZM96.0362 35H91.7749L96.576 20.4545H101.974L106.775 35H102.513L99.3317 24.4602H99.218L96.0362 35ZM95.2408 29.2614H103.252V32.2159H95.2408V29.2614ZM108.176 35V20.4545H112.125V26.1364H117.352V20.4545H121.301V35H117.352V29.3182H112.125V35H108.176ZM127.125 20.4545V35H123.176V20.4545H127.125ZM134.593 35H128.996V20.4545H134.536C136.032 20.4545 137.325 20.7457 138.414 21.3281C139.507 21.9058 140.35 22.7391 140.942 23.8281C141.539 24.9124 141.837 26.2121 141.837 27.7273C141.837 29.2424 141.541 30.5445 140.949 31.6335C140.357 32.7178 139.519 33.5511 138.435 34.1335C137.351 34.7112 136.07 35 134.593 35ZM132.945 31.6477H134.451C135.17 31.6477 135.783 31.5317 136.29 31.2997C136.801 31.0677 137.19 30.6676 137.455 30.0994C137.725 29.5312 137.86 28.7405 137.86 27.7273C137.86 26.714 137.722 25.9233 137.448 25.3551C137.178 24.7869 136.78 24.3868 136.255 24.1548C135.734 23.9228 135.095 23.8068 134.337 23.8068H132.945V31.6477ZM146.96 20.4545V22.1591C146.96 22.6231 146.865 23.0871 146.675 23.5511C146.491 24.0104 146.254 24.4389 145.965 24.8366C145.681 25.2296 145.388 25.5587 145.085 25.8239L143.465 25C143.664 24.6591 143.842 24.2637 143.998 23.8139C144.154 23.3641 144.232 22.8125 144.232 22.1591V20.4545H146.96ZM156.642 25C156.604 24.5265 156.426 24.1572 156.109 23.892C155.797 23.6269 155.321 23.4943 154.681 23.4943C154.274 23.4943 153.94 23.544 153.68 23.6435C153.424 23.7382 153.235 23.8684 153.112 24.0341C152.989 24.1998 152.925 24.3892 152.92 24.6023C152.911 24.7775 152.941 24.9361 153.012 25.0781C153.088 25.2154 153.207 25.3409 153.368 25.4545C153.529 25.5634 153.734 25.6629 153.985 25.7528C154.236 25.8428 154.535 25.9233 154.88 25.9943L156.074 26.25C156.878 26.4205 157.567 26.6454 158.14 26.9247C158.713 27.2041 159.182 27.5331 159.547 27.9119C159.911 28.286 160.179 28.7074 160.349 29.1761C160.524 29.6449 160.614 30.1562 160.619 30.7102C160.614 31.6667 160.375 32.4763 159.902 33.1392C159.428 33.8021 158.751 34.3063 157.87 34.652C156.994 34.9976 155.941 35.1705 154.71 35.1705C153.446 35.1705 152.342 34.9834 151.4 34.6094C150.463 34.2353 149.734 33.66 149.213 32.8835C148.697 32.1023 148.436 31.1032 148.431 29.8864H152.181C152.205 30.3314 152.316 30.7055 152.515 31.0085C152.714 31.3116 152.993 31.5412 153.353 31.6974C153.718 31.8537 154.151 31.9318 154.653 31.9318C155.074 31.9318 155.427 31.8797 155.711 31.7756C155.995 31.6714 156.211 31.527 156.358 31.3423C156.504 31.1577 156.58 30.947 156.585 30.7102C156.58 30.4877 156.507 30.2936 156.365 30.1278C156.227 29.9574 156 29.8059 155.683 29.6733C155.366 29.536 154.937 29.4081 154.397 29.2898L152.949 28.9773C151.661 28.6979 150.645 28.2315 149.902 27.5781C149.163 26.92 148.796 26.0227 148.801 24.8864C148.796 23.9631 149.042 23.1558 149.539 22.4645C150.041 21.7685 150.735 21.2263 151.62 20.8381C152.511 20.4498 153.531 20.2557 154.681 20.2557C155.856 20.2557 156.871 20.4522 157.728 20.8452C158.585 21.2382 159.246 21.7921 159.71 22.5071C160.179 23.2173 160.415 24.0483 160.42 25H156.642Z" fill="white"/>
</svg>
